<?xml version="1.0" encoding="UTF-8" standalone="no"?>
<svg width="51px" height="50px" viewBox="0 0 51 50" version="1.1" xmlns="http://www.w3.org/2000/svg" xmlns:xlink="http://www.w3.org/1999/xlink">
    <!-- Generator: Sketch 41.2 (35397) - http://www.bohemiancoding.com/sketch -->
    <title>Consulting Engineering Icon</title>
    <desc>Created with Sketch.</desc>
    <defs>
        <path d="M0,0.755682345 C0,0.33833051 0.326464245,0 0.75811726,0 L42.9201006,0 C43.3387972,0 43.6765287,0.33784816 43.6744398,0.755682345 L43.5557582,24.4943177 C43.5536717,24.9116695 43.2069163,25.25 42.807657,25.25 L10.8564356,25.25 L7.48180537,30.3737034 C7.25398877,30.7195974 6.88916349,30.7069515 6.67753197,30.3626798 L3.53465347,25.25 L0.749609088,25.25 C0.33561142,25.25 0,24.9121518 0,24.4943177 L0,0.755682345 Z" id="path-1"></path>
        <mask id="mask-2" maskContentUnits="userSpaceOnUse" maskUnits="objectBoundingBox" x="0" y="0" width="43.6744494" height="30.6270798" fill="white">
            <use xlink:href="#path-1"></use>
        </mask>
        <path d="M0,0.756310537 C0,0.338611761 0.331970438,0 0.745479861,0 L28.8143226,0 C29.2260397,0 29.5581721,0.326101889 29.5560213,0.756310537 L29.4781507,16.3319556 C29.4760624,16.7496544 29.1444058,17.0882662 28.7254811,17.0882662 L7.34723413,17.0882662 L5.19603395,20.3544348 C4.96860946,20.6997336 4.61220991,20.6997945 4.38923506,20.33707 L2.39212274,17.0882662 L0.756882586,17.0882662 C0.338867876,17.0882662 0,16.7621643 0,16.3319556 L0,0.756310537 Z" id="path-3"></path>
        <mask id="mask-4" maskContentUnits="userSpaceOnUse" maskUnits="objectBoundingBox" x="0" y="0" width="29.5560316" height="20.6113008" fill="white">
            <use xlink:href="#path-3"></use>
        </mask>
    </defs>
    <g id="Services" stroke="none" stroke-width="1" fill="none" fill-rule="evenodd">
        <g transform="translate(-260.000000, -1170.000000)" id="Consulting-Engineers" stroke="#008CFF">
            <g transform="translate(260.000000, 1162.000000)">
                <g id="Consulting-Engineering-Icon" transform="translate(0.000000, 8.000000)">
                    <g id="Group">
                        <use id="Rectangle-73" mask="url(#mask-2)" xlink:href="#path-1"></use>
                        <ellipse id="Oval-3" stroke-width="0.5" cx="11.8663366" cy="13" rx="2.52475248" ry="2.5"></ellipse>
                        <ellipse id="Oval-3-Copy" stroke-width="0.5" cx="21.9653465" cy="13" rx="2.52475248" ry="2.5"></ellipse>
                        <ellipse id="Oval-3-Copy-2" stroke-width="0.5" cx="32.0643564" cy="13" rx="2.52475248" ry="2.5"></ellipse>
                    </g>
                    <g id="Group-Copy" transform="translate(35.767723, 39.367052) scale(-1, 1) translate(-35.767723, -39.367052) translate(20.767723, 28.867052)">
                        <use id="Rectangle-73" mask="url(#mask-4)" xlink:href="#path-3"></use>
                        <ellipse id="Oval-3" stroke-width="0.5" cx="8.03069777" cy="8.79791921" rx="1.7086591" ry="1.69190754"></ellipse>
                        <ellipse id="Oval-3-Copy" stroke-width="0.5" cx="14.8653342" cy="8.79791921" rx="1.7086591" ry="1.69190754"></ellipse>
                        <ellipse id="Oval-3-Copy-2" stroke-width="0.5" cx="21.6999706" cy="8.79791921" rx="1.7086591" ry="1.69190754"></ellipse>
                    </g>
                </g>
            </g>
        </g>
    </g>
</svg>