<?xml version="1.0" encoding="UTF-8" standalone="no"?>
<svg width="16px" height="16px" viewBox="0 0 16 16" version="1.1" xmlns="http://www.w3.org/2000/svg" xmlns:xlink="http://www.w3.org/1999/xlink">
<!-- Generator: Sketch 41.2 (35397) - http://www.bohemiancoding.com/sketch -->
<title>phone</title>
<desc>Created with Sketch.</desc>
<defs></defs>
<g id="Home" stroke="none" stroke-width="1" fill="none" fill-rule="evenodd">
<g transform="translate(-1177.000000, -39.000000)" id="Header">
<g transform="translate(-292.000000, 0.000000)">
<g id="Primary-Nav" transform="translate(542.000000, 30.000000)">
<g id="phone" transform="translate(925.000000, 7.000000)">
<rect id="Rectangle-path" x="0" y="0" width="20" height="20"></rect>
<path d="M11.18,11.317 C9.612,12.885 7.797,14.383 7.079,13.666 C6.051,12.639 5.418,11.744 3.153,13.564 C0.888,15.385 2.628,16.598 3.623,17.594 C4.772,18.742 9.053,17.655 13.285,13.423 C17.516,9.191 18.605,4.91 17.456,3.761 C16.461,2.765 15.248,1.026 13.427,3.292 C11.606,5.556 12.501,6.189 13.529,7.217 C14.246,7.934 12.748,9.749 11.18,11.317 L11.18,11.317 Z" id="Shape" fill="#FFFFFF"></path>
</g>
</g>
</g>
</g>
</g>
</svg>
