<?xml version="1.0" encoding="UTF-8" standalone="no"?>
<svg width="37px" height="53px" viewBox="0 0 37 53" version="1.1" xmlns="http://www.w3.org/2000/svg" xmlns:xlink="http://www.w3.org/1999/xlink">
<!-- Generator: Sketch 41.2 (35397) - http://www.bohemiancoding.com/sketch -->
  <title>Land Planners Icon</title>
    <desc>Created with Sketch.</desc>
      <defs>
        <rect id="path-1" x="0" y="2.98156682" width="37" height="50.0184332" rx="1.75"></rect>
          <mask id="mask-2" maskContentUnits="userSpaceOnUse" maskUnits="objectBoundingBox" x="0" y="0" width="37" height="50.0184332" fill="white">
            <use xlink:href="#path-1"></use>
              </mask>
                <rect id="path-3" x="8.35998535" y="3" width="20.2739726" height="3.98156682"></rect>
                  <mask id="mask-4" maskContentUnits="userSpaceOnUse" maskUnits="objectBoundingBox" x="0" y="0" width="20.2739726" height="3.98156682" fill="white">
                    <use xlink:href="#path-3"></use>
                      </mask>
                        <path d="M18.2465754,3.98144531 C19.3662759,3.98144531 21.6293945,3.98156691 21.6293945,3.06274414 C21.6293945,0.956542969 19.3662759,0 18.2465753,0 C17.1268748,0 15.0146484,1.14404297 15.0146484,3.06274414 C15.0146484,3.98156691 17.1268748,3.98144531 18.2465754,3.98144531 Z" id="path-5"></path>
                          <mask id="mask-6" maskContentUnits="userSpaceOnUse" maskUnits="objectBoundingBox" x="0" y="0" width="6.61474609" height="3.98144531" fill="white">
                            <use xlink:href="#path-5"></use>
                              </mask>
                                </defs>
                                  <g id="Services" stroke="none" stroke-width="1" fill="none" fill-rule="evenodd">
                                    <g transform="translate(-259.000000, -1631.000000)" id="Land-Planners" stroke="#FFB500">
                                      <g transform="translate(258.000000, 1624.000000)">
                                      <g id="Land-Planners-Icon" transform="translate(1.000000, 7.000000)">
                                    <use id="Rectangle-85" mask="url(#mask-2)" stroke-width="2" xlink:href="#path-1"></use>
                                  <use id="Rectangle-86" mask="url(#mask-4)" stroke-width="2" xlink:href="#path-3"></use>
                                <use id="Oval-14" mask="url(#mask-6)" stroke-width="2" xlink:href="#path-5"></use>
                              <path d="M12.845474,13.5 L31.0568508,13.5" id="Path-48" stroke-linecap="round"></path>
                            <path d="M13.0050266,21.5 L31.2164034,21.5" id="Path-48-Copy" stroke-linecap="round"></path>
                          <path d="M13.0050266,29.5 L31.2164034,29.5" id="Path-48-Copy-2" stroke-linecap="round"></path>
                        <path d="M13.0050266,37.5 L31.2164034,37.5" id="Path-48-Copy-3" stroke-linecap="round"></path>
                      <path d="M13.0050266,45.5 L31.2164034,45.5" id="Path-48-Copy-4" stroke-linecap="round"></path>
                    <ellipse id="Oval-15" stroke-width="0.5" cx="7.25" cy="13.8064516" rx="1.90068493" ry="1.86635945"></ellipse>
                  <ellipse id="Oval-15-Copy" stroke-width="0.5" cx="7.25" cy="21.7695853" rx="1.90068493" ry="1.86635945"></ellipse>
                <ellipse id="Oval-15-Copy-2" stroke-width="0.5" cx="7.25" cy="29.8571429" rx="1.90068493" ry="1.86635945"></ellipse>
              <ellipse id="Oval-15-Copy-3" stroke-width="0.5" cx="7.25" cy="37.8202765" rx="1.90068493" ry="1.86635945"></ellipse>
            <ellipse id="Oval-15-Copy-4" stroke-width="0.5" cx="7.25" cy="45.7834101" rx="1.90068493" ry="1.86635945"></ellipse>
          <polyline id="Path-53" stroke-width="0.5" stroke-linecap="round" points="6.23630137 13.5576037 7.25 14.5529954 9.9109589 11.0691244"></polyline>
        </g>
      </g>
    </g>
  </g>
</svg>
